<?xml version="1.0" standalone="no"?>
<!DOCTYPE svg PUBLIC "-//W3C//DTD SVG 1.1//EN"
   "http://www.w3.org/Graphics/SVG/1.1/DTD/svg11.dtd">
<svg width="194" height="80" version="1.1"
   xmlns="http://www.w3.org/2000/svg">
   <desc>*LOVE CLEVERSE*
   </desc>

   <g id="barcode" fill="#000000">
      <rect x="0" y="0" width="194" height="80" fill="#FFFFFF" />
      <rect x="0.00" y="0.00" width="1.00" height="80.00" />
      <rect x="3.00" y="0.00" width="1.00" height="80.00" />
      <rect x="5.00" y="0.00" width="2.00" height="80.00" />
      <rect x="8.00" y="0.00" width="2.00" height="80.00" />
      <rect x="11.00" y="0.00" width="1.00" height="80.00" />
      <rect x="13.00" y="0.00" width="1.00" height="80.00" />
      <rect x="15.00" y="0.00" width="2.00" height="80.00" />
      <rect x="18.00" y="0.00" width="1.00" height="80.00" />
      <rect x="20.00" y="0.00" width="1.00" height="80.00" />
      <rect x="23.00" y="0.00" width="2.00" height="80.00" />
      <rect x="26.00" y="0.00" width="2.00" height="80.00" />
      <rect x="29.00" y="0.00" width="1.00" height="80.00" />
      <rect x="31.00" y="0.00" width="2.00" height="80.00" />
      <rect x="34.00" y="0.00" width="1.00" height="80.00" />
      <rect x="37.00" y="0.00" width="1.00" height="80.00" />
      <rect x="39.00" y="0.00" width="1.00" height="80.00" />
      <rect x="42.00" y="0.00" width="2.00" height="80.00" />
      <rect x="45.00" y="0.00" width="1.00" height="80.00" />
      <rect x="47.00" y="0.00" width="1.00" height="80.00" />
      <rect x="49.00" y="0.00" width="2.00" height="80.00" />
      <rect x="52.00" y="0.00" width="2.00" height="80.00" />
      <rect x="55.00" y="0.00" width="1.00" height="80.00" />
      <rect x="57.00" y="0.00" width="2.00" height="80.00" />
      <rect x="61.00" y="0.00" width="1.00" height="80.00" />
      <rect x="63.00" y="0.00" width="1.00" height="80.00" />
      <rect x="65.00" y="0.00" width="1.00" height="80.00" />
      <rect x="68.00" y="0.00" width="2.00" height="80.00" />
      <rect x="71.00" y="0.00" width="1.00" height="80.00" />
      <rect x="73.00" y="0.00" width="2.00" height="80.00" />
      <rect x="76.00" y="0.00" width="1.00" height="80.00" />
      <rect x="78.00" y="0.00" width="2.00" height="80.00" />
      <rect x="81.00" y="0.00" width="2.00" height="80.00" />
      <rect x="84.00" y="0.00" width="1.00" height="80.00" />
      <rect x="87.00" y="0.00" width="1.00" height="80.00" />
      <rect x="89.00" y="0.00" width="1.00" height="80.00" />
      <rect x="91.00" y="0.00" width="1.00" height="80.00" />
      <rect x="93.00" y="0.00" width="2.00" height="80.00" />
      <rect x="96.00" y="0.00" width="1.00" height="80.00" />
      <rect x="98.00" y="0.00" width="1.00" height="80.00" />
      <rect x="101.00" y="0.00" width="2.00" height="80.00" />
      <rect x="104.00" y="0.00" width="2.00" height="80.00" />
      <rect x="107.00" y="0.00" width="1.00" height="80.00" />
      <rect x="109.00" y="0.00" width="2.00" height="80.00" />
      <rect x="113.00" y="0.00" width="1.00" height="80.00" />
      <rect x="115.00" y="0.00" width="1.00" height="80.00" />
      <rect x="117.00" y="0.00" width="1.00" height="80.00" />
      <rect x="120.00" y="0.00" width="2.00" height="80.00" />
      <rect x="123.00" y="0.00" width="1.00" height="80.00" />
      <rect x="125.00" y="0.00" width="1.00" height="80.00" />
      <rect x="127.00" y="0.00" width="2.00" height="80.00" />
      <rect x="130.00" y="0.00" width="2.00" height="80.00" />
      <rect x="133.00" y="0.00" width="1.00" height="80.00" />
      <rect x="135.00" y="0.00" width="2.00" height="80.00" />
      <rect x="139.00" y="0.00" width="1.00" height="80.00" />
      <rect x="141.00" y="0.00" width="1.00" height="80.00" />
      <rect x="143.00" y="0.00" width="2.00" height="80.00" />
      <rect x="146.00" y="0.00" width="1.00" height="80.00" />
      <rect x="148.00" y="0.00" width="1.00" height="80.00" />
      <rect x="150.00" y="0.00" width="2.00" height="80.00" />
      <rect x="154.00" y="0.00" width="1.00" height="80.00" />
      <rect x="156.00" y="0.00" width="1.00" height="80.00" />
      <rect x="158.00" y="0.00" width="2.00" height="80.00" />
      <rect x="161.00" y="0.00" width="1.00" height="80.00" />
      <rect x="163.00" y="0.00" width="2.00" height="80.00" />
      <rect x="167.00" y="0.00" width="1.00" height="80.00" />
      <rect x="169.00" y="0.00" width="2.00" height="80.00" />
      <rect x="172.00" y="0.00" width="1.00" height="80.00" />
      <rect x="174.00" y="0.00" width="2.00" height="80.00" />
      <rect x="178.00" y="0.00" width="1.00" height="80.00" />
      <rect x="180.00" y="0.00" width="1.00" height="80.00" />
      <rect x="182.00" y="0.00" width="1.00" height="80.00" />
      <rect x="185.00" y="0.00" width="1.00" height="80.00" />
      <rect x="187.00" y="0.00" width="2.00" height="80.00" />
      <rect x="190.00" y="0.00" width="2.00" height="80.00" />
      <rect x="193.00" y="0.00" width="1.00" height="80.00" />
   </g>
</svg>
